<?xml version="1.0" encoding="UTF-8"?>
<svg id="Layer_1" xmlns="http://www.w3.org/2000/svg" version="1.1" viewBox="0 0 2000 2000">
  <!-- Generator: Adobe Illustrator 29.8.4, SVG Export Plug-In . SVG Version: 2.1.1 Build 6)  -->
  <defs>
    <style>
      .st0 {
        fill: #024890;
      }
    </style>
  </defs>
  <path class="st0" d="M1171.85,580.07c11.73-31.57,21.65-53.22,21.65-69.46,0-41.5-37.89-49.62-92.92-49.62-44.2,0-81.19,8.12-81.19,41.5,0,24.36,13.53,47.81,27.06,78.48l62.25,147.04h3.61l59.54-147.94ZM1036.54,1071.72l-218.31,516.9h-55.93l-415.87-980.58c-33.38-77.58-55.03-147.04-143.43-147.04h-25.26v-49.62c63.15,0,158.77,6.31,238.15,6.31,68.56,0,155.16-6.31,207.48-6.31v49.62h-14.43c-37.89,0-71.27,6.31-71.27,37.89,0,21.65,15.34,71.27,55.93,169.6l270.63,635.98,134.41-322.05-206.58-477.21c-16.24-37.89-57.73-44.2-101.04-44.2v-49.62c77.58,0,155.16,6.31,232.74,6.31,61.34,0,120.88-6.31,182.22-6.31,52.32,0,105.55,6.31,157.87,6.31,49.62,0,99.23-6.31,148.85-6.31v49.62h-23.45c-82.09,0-101.94,31.57-143.43,125.39l-97.43,226.43,202.97,478.11,254.39-692.81c9.92-27.97,25.26-69.46,25.26-91.11,0-36.08-29.77-46.01-99.23-46.01h-19.85v-49.62c54.13,0,109.15,6.31,163.28,6.31,49.62,0,97.43-6.31,147.04-6.31v49.62h-19.85c-49.62,0-77.58,55.93-97.43,107.35l-389.71,1020.28h-57.73l-221.01-516.9Z"/>
</svg>